<?xml version="1.0" encoding="utf-8"?>
<!-- Generator: Adobe Illustrator 17.0.0, SVG Export Plug-In . SVG Version: 6.00 Build 0)  -->
<!DOCTYPE svg PUBLIC "-//W3C//DTD SVG 1.1//EN" "http://www.w3.org/Graphics/SVG/1.1/DTD/svg11.dtd">
<svg version="1.1" id="Calque_1" xmlns="http://www.w3.org/2000/svg" xmlns:xlink="http://www.w3.org/1999/xlink" x="0px" y="0px"
	 width="375.92px" height="352.788px" viewBox="0 0 375.92 352.788" enable-background="new 0 0 375.92 352.788"
	 xml:space="preserve">
<g>
	<path fill="#FFFFFF" d="M201.844,352.788c17.593-46.318,25.483-93.316,29.616-141.75c-3.868,0-7.239-0.084-10.604,0.014
		c-18.301,0.535-36.598,1.286-54.903,1.581c-6.061,0.098-9.24,3.643-12.239,7.909c-1.47,2.091-2.612,4.439-4.255,6.37
		c-0.866,1.018-2.49,1.392-3.772,2.057c-0.487-1.289-1.402-2.587-1.376-3.865c0.068-3.222,0.56-6.436,0.988-10.71
		c-4.747,0.933-9.619,1.122-13.831,2.888c-7.292,3.058-13.547,2.109-19.685-2.455c-3.427-2.548-7.217-4.629-10.513-7.325
		c-4.269-3.492-3.231-8.506,2.111-9.835c4.876-1.213,9.92-2.203,14.92-2.363c9.402-0.299,18.831-0.096,28.236,0.247
		c3.607,0.132,5.572-0.784,6.732-4.403c3.6-11.231,7.662-22.313,11.277-33.539c7.184-22.31,19.437-42.182,29.947-62.894
		c1.534-3.022,2.988-6.085,4.913-10.015c-7.07-1.252-13.535-3.355-20.001-3.357c-17.238-0.005-34.49,0.649-51.708,1.562
		c-6.253,0.332-12.438,2.089-18.636,3.291c-5.02,0.974-8.662-1.607-10.557-5.484c-3.245-6.64-7.223-13.285-6.047-21.038
		c14.006-4.816,27.683-1.302,41.498,0.622c8.439,1.175,17.071,0.906,25.601,1.503c20.881,1.462,41.314-1.046,61.367-6.82
		c5.532-1.593,9.829-0.569,13.657,3.948c3.305,3.9,7.146,7.372,10.933,10.834c6.213,5.68,4.478,12.137,0.002,17.055
		c-13.678,15.028-28.194,29.352-41.082,45.02c-8.713,10.592-15.784,22.679-22.544,34.686c-5.116,9.086-8.58,19.103-12.961,29.118
		c21.332,0,41.099,0,61.742,0c-0.862-9.271-1.236-17.948-2.597-26.467c-1.067-6.68-3.068-13.258-5.182-19.709
		c-2.032-6.2,0.722-14.278,7.252-18.638c3.267-2.181,6.724-4.089,10.167-5.991c6.009-3.32,14.92-0.823,15.788,7.426
		c5.823,0.472,11.775,1.478,17.7,1.339c19.754-0.462,39.583,1.848,59.201-3.587c9.006-2.495,18.328-0.589,25.415,7.03
		c5.01,5.386,4.747,7.632-1.61,11.003c-1.246,0.661-2.453,1.878-3.088,3.136c-6.942,13.749-9.995,28.537-11.935,44.344
		c2.511-0.164,4.534-0.055,6.449-0.458c14.305-3.014,21.702,1.036,26.257,14.916c1.013,3.088,1.789,6.646,1.268,9.752
		c-0.763,4.55-4.241,6.197-8.906,5.224c-9.185-1.916-18.398-3.701-28.707-5.761c0,5.069,0,9.372,0,13.674
		c-0.76,0.155-1.521,0.311-2.281,0.466c-1.443-3.614-3.204-7.14-4.231-10.868c-0.843-3.059-2.361-4.613-5.436-5.156
		c-23.464-4.141-47.028-7.155-70.926-6.616c-0.83,0.019-1.657,0.166-2.459,0.251c-2.998,17.201-5.311,34.321-9.066,51.119
		c-5.828,26.066-13.345,51.682-25.637,75.594c-2.022,3.934-4.357,7.907-7.389,11.051
		C208.756,350.748,205.266,351.304,201.844,352.788z M324.475,196.628c-0.276-2.101-0.708-4.414-0.864-6.745
		c-0.774-11.562-1.857-23.125-1.998-34.698c-0.05-4.121-0.767-5.102-4.645-4.66c-15.265,1.741-30.337-0.043-45.29-3.023
		c-5.137-1.024-10.168-2.58-16.211-4.142c0,17.825,0,35.139,0,53.268C278.093,196.628,301.067,196.628,324.475,196.628z"/>
	<path fill="#FFFFFF" d="M53.432,136.723c14.764-3.957,28.715-8.309,42.946-11.345c15.695-3.348,31.619-5.691,47.517-7.955
		c2.614-0.372,5.605,1.909,8.422,2.964c-2.377,1.363-4.639,3.006-7.151,4.04c-12.154,4.999-24.434,9.692-36.56,14.757
		c-21.695,9.062-42.686,19.388-60.102,35.657c-7.675,7.169-14.288,15.015-17.599,25.387c-2.652,8.305-7.508,9.055-14.146,3.1
		c-6.662-5.977-12.995-12.013-15.656-21.082c-2.25-7.668-1.229-13.12,4.689-18.497c1.77-1.608,3.482-3.379,5.511-4.588
		c11.782-7.024,17.879-18.609,22.201-30.554C44.801,97.381,51.723,65.162,50.92,31.674c-0.077-3.208-0.523-6.445-1.168-9.593
		c-1.578-7.703,0.789-12.914,8.131-15.4C65.58,4.074,73.417,1.692,81.371,0.1c4.675-0.936,10.435,4.889,10.658,9.872
		c0.112,2.502,0.215,5.563-1.041,7.478C82.966,29.682,80.216,43.492,77.904,57.56C73.438,84.736,63.281,110.193,53.432,136.723z"/>
	<path fill="#FFFFFF" d="M346.831,305.795c-1.412,5.225-2.461,9.544-3.754,13.788c-1.835,6.024-3.497,12.139-5.894,17.942
		c-2.08,5.037-4.387,5.072-9.22,2.923c-8.461-3.763-12.69-10.824-16.536-18.631c-9.8-19.89-19.602-39.791-30.065-59.333
		c-2.628-4.908-7.844-8.397-11.668-12.718c-1.255-1.418-2.986-4.524-2.575-4.934c1.645-1.645,4.044-3.467,6.166-3.468
		c2.704-0.001,5.63,1.311,8.078,2.722c21.984,12.665,40.112,30.162,58.214,47.554C343.353,295.267,344.686,301.436,346.831,305.795z
		"/>
</g>
</svg>
